# xmcd CD database file
#
# Track frame offsets:
#	150
#	16876
#	34095
#	49247
#	69503
#	83352
#	102610
#	120735
#	142139
#	161286
#	180957
#
# Disc length: 2706 seconds
#
# Revision: 7
# Processed by: cddbd v1.5.1PL0 Copyright (c) Steve Scherf et al.
# Submitted via: CDex 1.51
#
DISCID=880a900b
DTITLE=後藤真希 - 3rdステーション
DYEAR=2005
DGENRE=JPop
TTITLE0=エキゾなDISCO
TTITLE1=さよなら「友達にはなりたくないの」
TTITLE2=横浜蜃気楼
TTITLE3=シンガポール トランジット
TTITLE4=来来！「幸福」
TTITLE5=渡良瀬橋 （後藤Version）
TTITLE6=ポジティブ元気！
TTITLE7=サヨナラのLOVE SONG
TTITLE8=恋愛戦隊シツレンジャー  （後藤Version）
TTITLE9=ステーション
TTITLE10=19歳のひとり言
EXTD=YEAR: 2005
EXTT0=
EXTT1=
EXTT2=
EXTT3=
EXTT4=
EXTT5=
EXTT6=
EXTT7=
EXTT8=
EXTT9=
EXTT10=
PLAYORDER=
